<?xml version="1.0" encoding="UTF-8"?>
<svg width="29px" height="26px" viewBox="0 0 29 26" version="1.1" xmlns="http://www.w3.org/2000/svg" xmlns:xlink="http://www.w3.org/1999/xlink">
    <!-- Generator: Sketch 53.2 (72643) - https://sketchapp.com -->
    <title>Group 3</title>
    <desc>Created with Sketch.</desc>
    <defs>
        <polygon id="path-1" points="0 0 29 0 29 26 0 26"></polygon>
    </defs>
    <g id="Page-1" stroke="none" stroke-width="1" fill="none" fill-rule="evenodd">
        <g id="Artboard-Copy-9" transform="translate(-487.000000, -3708.000000)">
            <g id="Group-3" transform="translate(487.000000, 3708.000000)">
                <mask id="mask-2" fill="white">
                    <use xlink:href="#path-1"></use>
                </mask>
                <g id="Clip-2"></g>
                <path d="M19.3910833,0 L9.608761,0 C7.92804374,0 6.36189254,0.890958723 5.52153392,2.32557408 L0.63026897,10.6743237 C-0.210089657,12.1087345 -0.210089657,13.891061 0.63026897,15.3256763 L5.52153392,23.6744259 C6.36189254,25.1088367 7.92804374,26 9.608761,26 L19.3910833,26 C21.0720081,26 22.6381593,25.1088367 23.4783104,23.6744259 L28.3695754,15.3256763 C29.2101415,13.891061 29.2101415,12.1087345 28.3695754,10.6743237 L23.4783104,2.32557408 C22.6381593,0.890958723 21.0720081,0 19.3910833,0 M19.3910833,1.84082381 C20.4099326,1.84082381 21.3513667,2.376299 21.8606875,3.24598598 L26.7519525,11.5947356 C27.2612733,12.464218 27.2612733,13.5355775 26.7519525,14.4052644 L21.8606875,22.754014 C21.3513667,23.6234965 20.4099326,24.1591762 19.3910833,24.1591762 L9.608761,24.1591762 C8.58991177,24.1591762 7.64847766,23.6234965 7.13915682,22.754014 L2.24789188,14.4052644 C1.73857104,13.5355775 1.73857104,12.464218 2.24789188,11.5947356 L7.13915682,3.24598598 C7.64847766,2.376299 8.58991177,1.84082381 9.608761,1.84082381 L19.3910833,1.84082381" id="Fill-1" fill="#FFFFFF" mask="url(#mask-2)"></path>
            </g>
        </g>
    </g>
</svg>