<?xml version="1.0" encoding="UTF-8"?>
<svg width="269px" height="61px" viewBox="0 0 269 61" version="1.1" xmlns="http://www.w3.org/2000/svg" xmlns:xlink="http://www.w3.org/1999/xlink">
    <!-- Generator: Sketch 53.2 (72643) - https://sketchapp.com -->
    <title>Group 10</title>
    <desc>Created with Sketch.</desc>
    <g id="Page-1" stroke="none" stroke-width="1" fill="none" fill-rule="evenodd">
        <g id="Artboard-Copy-9" transform="translate(-95.000000, -434.000000)">
            <g id="Group-10" transform="translate(96.000000, 435.000000)">
                <path d="M265.049376,21.6426963 L257.64473,7.85898569 C255.040899,3.01155995 250.188447,0 244.980784,0 L22.0199007,0 C16.812238,0 11.959003,3.01155995 9.3551717,7.85982667 L1.95287351,21.6401733 C-0.650957837,26.4875991 -0.650957837,32.510719 1.95287351,37.3589857 L9.3551717,51.1401733 C11.959003,55.98844 16.812238,59 22.0199007,59 L244.325132,59 C249.532794,59 255.040899,55.98844 257.64473,51.1401733 L265.047811,37.3589857 C267.650078,32.5124009 267.65086,26.490963 265.049376,21.6426963 Z" id="Stroke-3" stroke="#9375FC" stroke-width="2"></path>
                <path d="M259.83215,24.3445371 L252.405939,10.6567159 C250.84802,7.78416953 247.944876,6 244.829039,6 L21.1715501,6 C18.0557126,6 15.1517833,7.78416953 13.5938646,10.6567159 L6.16843908,24.3437018 C4.61052031,27.2154128 4.61052031,30.7837519 6.16843908,33.6562982 L13.5938646,47.3441194 C15.1517833,50.2158305 18.0557126,52 21.1715501,52 L244.829039,52 C247.944876,52 250.84802,50.2166658 252.405939,47.3441194 L259.83215,33.6554629 C261.389283,30.7845872 261.389283,27.2162481 259.83215,24.3445371" id="Fill-5" fill="#FFBF3F"></path>
                <g id="Group-3" transform="translate(11.000000, 12.000000)">
                    <path d="M24.1258241,2.59136763 L12.0116919,2.59136763 C10.1567108,2.59136763 8.44306862,3.6067353 7.51594425,5.2549228 L1.45887816,16.0218786 C0.531753791,17.6700661 0.531753791,19.7008015 1.45887816,21.348989 L7.51594425,32.1159448 C8.44306862,33.7641323 10.1567108,34.7795 12.0116919,34.7795 L24.1258241,34.7795 C25.9800728,34.7795 27.693715,33.7641323 28.6208394,32.1159448 L34.6786378,21.348989 C35.6057622,19.7008015 35.6057622,17.6700661 34.6786378,16.0218786 L28.6215717,5.2549228 C27.693715,3.6067353 25.9800728,2.59136763 24.1258241,2.59136763" id="Fill-7" fill="#C8003A"></path>
                    <path d="M24.1258241,0.633158537 L12.0116919,0.633158537 C10.1567108,0.633158537 8.44306862,1.64852621 7.51594425,3.29671371 L1.45887816,14.0636695 C0.531753791,15.7111055 0.531753791,17.7425924 1.45887816,19.3907799 L7.51594425,30.1577357 C8.44306862,31.8059232 10.1567108,32.8212909 12.0116919,32.8212909 L24.1258241,32.8212909 C25.9800728,32.8212909 27.693715,31.8059232 28.6208394,30.1577357 L34.6786378,19.3907799 C35.6057622,17.7425924 35.6057622,15.711857 34.6786378,14.0636695 L28.6215717,3.29671371 C27.693715,1.64852621 25.9800728,0.633158537 24.1258241,0.633158537" id="Fill-9" fill="#F40059"></path>
                </g>
            </g>
        </g>
    </g>
</svg>