<?xml version="1.0" encoding="UTF-8"?>
<svg width="269px" height="61px" viewBox="0 0 269 61" version="1.1" xmlns="http://www.w3.org/2000/svg" xmlns:xlink="http://www.w3.org/1999/xlink">
    <!-- Generator: Sketch 53.2 (72643) - https://sketchapp.com -->
    <title>Group 14</title>
    <desc>Created with Sketch.</desc>
    <g id="Page-1" stroke="none" stroke-width="1" fill="none" fill-rule="evenodd">
        <g id="Artboard-Copy-9" transform="translate(-97.000000, -648.000000)">
            <g id="Group-14" transform="translate(98.000000, 649.000000)">
                <path d="M265.049376,21.6426963 L257.64473,7.85898569 C255.040899,3.01155995 250.188447,0 244.980784,0 L22.0199007,0 C16.812238,0 11.959003,3.01155995 9.3551717,7.85982667 L1.95287351,21.6401733 C-0.650957837,26.4875991 -0.650957837,32.510719 1.95287351,37.3589857 L9.3551717,51.1401733 C11.959003,55.98844 16.812238,59 22.0199007,59 L244.325132,59 C249.532794,59 255.040899,55.98844 257.64473,51.1401733 L265.047811,37.3589857 C267.650078,32.5124009 267.65086,26.490963 265.049376,21.6426963 Z" id="Stroke-3-Copy" stroke="#9375FC" stroke-width="2"></path>
                <path d="M259.83215,24.3445371 L252.405939,10.6567159 C250.84802,7.78416953 247.944876,6 244.829039,6 L21.1715501,6 C18.0557126,6 15.1517833,7.78416953 13.5938646,10.6567159 L6.16843908,24.3437018 C4.61052031,27.2154128 4.61052031,30.7837519 6.16843908,33.6562982 L13.5938646,47.3441194 C15.1517833,50.2158305 18.0557126,52 21.1715501,52 L244.829039,52 C247.944876,52 250.84802,50.2166658 252.405939,47.3441194 L259.83215,33.6554629 C261.389283,30.7845872 261.389283,27.2162481 259.83215,24.3445371" id="Fill-5-Copy" fill="#FFE05F"></path>
                <path d="M35.1258241,14.5913676 L23.0116919,14.5913676 C21.1567108,14.5913676 19.4430686,15.6067353 18.5159443,17.2549228 L12.4588782,28.0218786 C11.5317538,29.6700661 11.5317538,31.7008015 12.4588782,33.348989 L18.5159443,44.1159448 C19.4430686,45.7641323 21.1567108,46.7795 23.0116919,46.7795 L35.1258241,46.7795 C36.9800728,46.7795 38.693715,45.7641323 39.6208394,44.1159448 L45.6786378,33.348989 C46.6057622,31.7008015 46.6057622,29.6700661 45.6786378,28.0218786 L39.6215717,17.2549228 C38.693715,15.6067353 36.9800728,14.5913676 35.1258241,14.5913676" id="Fill-7" fill="#C8003A"></path>
                <path d="M35.1258241,12.6331585 L23.0116919,12.6331585 C21.1567108,12.6331585 19.4430686,13.6485262 18.5159443,15.2967137 L12.4588782,26.0636695 C11.5317538,27.7111055 11.5317538,29.7425924 12.4588782,31.3907799 L18.5159443,42.1577357 C19.4430686,43.8059232 21.1567108,44.8212909 23.0116919,44.8212909 L35.1258241,44.8212909 C36.9800728,44.8212909 38.693715,43.8059232 39.6208394,42.1577357 L45.6786378,31.3907799 C46.6057622,29.7425924 46.6057622,27.711857 45.6786378,26.0636695 L39.6215717,15.2967137 C38.693715,13.6485262 36.9800728,12.6331585 35.1258241,12.6331585" id="Fill-9" fill="#E02D5C"></path>
            </g>
        </g>
    </g>
</svg>