<?xml version="1.0" encoding="UTF-8"?>
<svg width="66px" height="62px" viewBox="0 0 66 62" version="1.1" xmlns="http://www.w3.org/2000/svg" xmlns:xlink="http://www.w3.org/1999/xlink">
    <!-- Generator: Sketch 53.2 (72643) - https://sketchapp.com -->
    <title>Group 13</title>
    <desc>Created with Sketch.</desc>
    <g id="Page-1" stroke="none" stroke-width="1" fill="none" fill-rule="evenodd">
        <g id="Artboard-Copy-9" transform="translate(-199.000000, -754.000000)">
            <g id="Group-13" transform="translate(200.000000, 755.000000)">
                <path d="M61.4083325,21.7482254 L53.5429818,7.89752113 C50.7760208,3.02653521 45.6211117,0.000338028169 40.0888519,0.000338028169 L23.3931636,0.000338028169 C17.8600727,0.000338028169 12.7043325,3.02653521 9.9382026,7.8983662 L2.07451429,21.7456901 C-0.691615584,26.6166761 -0.691615584,32.6690704 2.07451429,37.5409014 L9.9382026,51.3890704 C12.7051636,56.2609014 17.8600727,59.2870986 23.3931636,59.2870986 L39.3923325,59.2870986 C44.9245922,59.2870986 50.7760208,56.2609014 53.5429818,51.3890704 L61.4066701,37.5409014 C64.1719688,32.6707606 64.1719688,26.6200563 61.4083325,21.7482254" id="Fill-1" fill="#2C2CA1"></path>
                <path d="M61.4083325,21.7482254 L53.5429818,7.89752113 C50.7760208,3.02653521 45.6211117,0.000338028169 40.0888519,0.000338028169 L23.3931636,0.000338028169 C17.8600727,0.000338028169 12.7043325,3.02653521 9.9382026,7.8983662 L2.07451429,21.7456901 C-0.691615584,26.6166761 -0.691615584,32.6690704 2.07451429,37.5409014 L9.9382026,51.3890704 C12.7051636,56.2609014 17.8600727,59.2870986 23.3931636,59.2870986 L39.3923325,59.2870986 C44.9245922,59.2870986 50.7760208,56.2609014 53.5429818,51.3890704 L61.4066701,37.5409014 C64.1719688,32.6707606 64.1719688,26.6200563 61.4083325,21.7482254 Z" id="Stroke-3" stroke="#9375FC" stroke-width="2"></path>
                <path d="M55.7317818,24.5182817 L47.8672623,10.6701127 C46.2173922,7.76391549 43.1420675,5.95884507 39.8423273,5.95884507 L23.146639,5.95884507 C19.8468987,5.95884507 16.7707429,7.76391549 15.1217039,10.6701127 L7.25801558,24.5174366 C5.60731429,27.4227887 5.60731429,31.0329296 7.25801558,33.9391268 L15.1217039,47.7872958 C16.7707429,50.6926479 19.8468987,52.4977183 23.146639,52.4977183 L39.8423273,52.4977183 C43.1420675,52.4977183 46.2173922,50.693493 47.8672623,47.7872958 L55.7317818,33.9382817 C57.3808208,31.0337746 57.3808208,27.4236338 55.7317818,24.5182817" id="Fill-5" fill="#FFE05F"></path>
                <path d="M37.6237714,13.7011268 L26.0223169,13.7011268 C23.9169662,13.7011268 21.9720312,14.8428169 20.9197714,16.6960563 L15.1190442,26.9112676 C14.0667844,28.764507 14.0667844,31.0478873 15.1190442,32.9011268 L20.9197714,43.116338 C21.9720312,44.9695775 23.9169662,46.1112676 26.0223169,46.1112676 L37.6237714,46.1112676 C39.7282909,46.1112676 41.673226,44.9695775 42.7254857,43.116338 L48.526213,32.9011268 C49.5793039,31.0478873 49.5793039,28.764507 48.5270442,26.9112676 L42.7254857,16.6960563 C41.673226,14.8428169 39.7282909,13.7011268 37.6237714,13.7011268" id="Fill-7" fill="#C8003A"></path>
                <path d="M37.6237714,12.4962254 L26.0223169,12.4962254 C23.9169662,12.4962254 21.9720312,13.6379155 20.9197714,15.4911549 L15.1190442,25.7063662 C14.0667844,27.5596056 14.0667844,29.8429859 15.1190442,31.6962254 L20.9197714,41.9114366 C21.9720312,43.7646761 23.9169662,44.9063662 26.0223169,44.9063662 L37.6237714,44.9072113 C39.7282909,44.9072113 41.673226,43.7646761 42.7254857,41.9114366 L48.526213,31.6962254 C49.5793039,29.8429859 49.5793039,27.5596056 48.5270442,25.7063662 L42.7254857,15.4911549 C41.673226,13.6379155 39.7282909,12.4962254 37.6237714,12.4962254" id="Fill-9" fill="#F40059"></path>
            </g>
        </g>
    </g>
</svg>